<svg xmlns="http://www.w3.org/2000/svg" width="1200" height="800" viewBox="0 0 1200 800" fill="none">
  <rect width="1200" height="800" rx="28" fill="#F6F8FC"/>
  <rect x="36" y="36" width="1128" height="728" rx="24" fill="white" stroke="#DCE2EF"/>
  <rect x="72" y="72" width="1056" height="74" rx="16" fill="#FAFBFF" stroke="#E2E8F5"/>
  <rect x="100" y="96" width="230" height="24" rx="8" fill="#EAF0FF"/>
  <rect x="72" y="170" width="670" height="558" rx="20" fill="#F8FAFF" stroke="#DCE2EF"/>
  <rect x="776" y="170" width="352" height="558" rx="20" fill="#F8FAFF" stroke="#DCE2EF"/>
  <rect x="104" y="204" width="250" height="16" rx="8" fill="#EAF0FF"/>
  <rect x="104" y="238" width="500" height="68" rx="14" fill="white" stroke="#DCE2EF"/>
  <rect x="104" y="320" width="430" height="68" rx="14" fill="#EAF0FF" stroke="#DCE2EF"/>
  <rect x="104" y="402" width="500" height="68" rx="14" fill="white" stroke="#DCE2EF"/>
  <rect x="104" y="484" width="430" height="68" rx="14" fill="#EAF0FF" stroke="#DCE2EF"/>
  <rect x="104" y="566" width="500" height="68" rx="14" fill="white" stroke="#DCE2EF"/>
  <rect x="808" y="204" width="220" height="16" rx="8" fill="#EAF0FF"/>
  <rect x="808" y="238" width="288" height="130" rx="14" fill="white" stroke="#DCE2EF"/>
  <rect x="808" y="390" width="288" height="130" rx="14" fill="white" stroke="#DCE2EF"/>
  <rect x="808" y="542" width="288" height="130" rx="14" fill="#1E63FF" opacity=".14"/>
</svg>
