<svg xmlns="http://www.w3.org/2000/svg" width="800" height="1200" viewBox="0 0 800 1200" fill="none">
  <rect width="800" height="1200" rx="28" fill="#F7F9FD"/>
  <rect x="40" y="40" width="720" height="72" rx="16" fill="white" stroke="#DCE2EF"/>
  <rect x="64" y="64" width="180" height="24" rx="8" fill="#EAF0FF"/>
  <rect x="620" y="58" width="116" height="36" rx="18" fill="#1E63FF"/>
  <rect x="40" y="140" width="720" height="340" rx="22" fill="white" stroke="#DCE2EF"/>
  <rect x="76" y="186" width="440" height="36" rx="10" fill="#EAF0FF"/>
  <rect x="76" y="236" width="360" height="16" rx="8" fill="#EEF2FA"/>
  <rect x="76" y="262" width="320" height="16" rx="8" fill="#EEF2FA"/>
  <rect x="76" y="304" width="160" height="48" rx="24" fill="#0B0F19"/>
  <rect x="254" y="304" width="172" height="48" rx="24" fill="white" stroke="#DCE2EF"/>
  <rect x="40" y="506" width="720" height="250" rx="22" fill="white" stroke="#DCE2EF"/>
  <rect x="76" y="546" width="280" height="24" rx="8" fill="#EAF0FF"/>
  <rect x="76" y="588" width="640" height="48" rx="14" fill="#F8FAFF" stroke="#DCE2EF"/>
  <rect x="76" y="648" width="640" height="48" rx="14" fill="#F8FAFF" stroke="#DCE2EF"/>
  <rect x="40" y="782" width="348" height="378" rx="22" fill="white" stroke="#DCE2EF"/>
  <rect x="412" y="782" width="348" height="378" rx="22" fill="white" stroke="#DCE2EF"/>
  <rect x="66" y="818" width="220" height="18" rx="8" fill="#EAF0FF"/>
  <rect x="438" y="818" width="220" height="18" rx="8" fill="#EAF0FF"/>
</svg>
