<svg xmlns="http://www.w3.org/2000/svg" width="1200" height="800" viewBox="0 0 1200 800" fill="none">
  <rect width="1200" height="800" rx="28" fill="#F6F8FC"/>
  <rect x="36" y="36" width="1128" height="80" rx="18" fill="white" stroke="#DCE2EF"/>
  <rect x="64" y="64" width="220" height="24" rx="8" fill="#EAF0FF"/>
  <rect x="312" y="64" width="120" height="24" rx="8" fill="#EAF0FF"/>
  <rect x="980" y="58" width="150" height="36" rx="18" fill="#1E63FF"/>
  <rect x="36" y="138" width="300" height="626" rx="20" fill="white" stroke="#DCE2EF"/>
  <rect x="62" y="174" width="248" height="18" rx="8" fill="#EAF0FF"/>
  <rect x="62" y="206" width="220" height="14" rx="7" fill="#EFF3FB"/>
  <rect x="62" y="250" width="248" height="92" rx="14" fill="#F8FAFF" stroke="#DCE2EF"/>
  <rect x="62" y="364" width="248" height="92" rx="14" fill="#F8FAFF" stroke="#DCE2EF"/>
  <rect x="62" y="478" width="248" height="92" rx="14" fill="#F8FAFF" stroke="#DCE2EF"/>
  <rect x="358" y="138" width="806" height="626" rx="20" fill="white" stroke="#DCE2EF"/>
  <rect x="386" y="170" width="320" height="22" rx="9" fill="#EEF3FF"/>
  <rect x="386" y="204" width="220" height="14" rx="7" fill="#EFF3FB"/>
  <rect x="386" y="244" width="750" height="230" rx="16" fill="#F8FAFF" stroke="#DCE2EF"/>
  <rect x="410" y="268" width="160" height="14" rx="7" fill="#DCE7FF"/>
  <rect x="410" y="292" width="260" height="12" rx="6" fill="#E9EEF9"/>
  <rect x="386" y="500" width="242" height="236" rx="16" fill="#F8FAFF" stroke="#DCE2EF"/>
  <rect x="654" y="500" width="242" height="236" rx="16" fill="#F8FAFF" stroke="#DCE2EF"/>
  <rect x="922" y="500" width="214" height="236" rx="16" fill="#1E63FF" opacity=".14"/>
</svg>
