<svg xmlns="http://www.w3.org/2000/svg" width="1200" height="800" viewBox="0 0 1200 800" fill="none">
  <rect width="1200" height="800" rx="28" fill="#F7F9FD"/>
  <rect x="30" y="30" width="1140" height="740" rx="24" fill="white" stroke="#DCE2EF"/>
  <rect x="62" y="62" width="1076" height="64" rx="16" fill="#FAFBFF" stroke="#E2E8F5"/>
  <rect x="84" y="84" width="180" height="20" rx="8" fill="#EAF0FF"/>
  <rect x="980" y="78" width="132" height="32" rx="16" fill="#1E63FF"/>
  <rect x="62" y="150" width="1076" height="248" rx="18" fill="#F8FAFF" stroke="#DCE2EF"/>
  <rect x="96" y="198" width="380" height="28" rx="10" fill="#EAF0FF"/>
  <rect x="96" y="238" width="300" height="14" rx="7" fill="#EEF2FA"/>
  <rect x="96" y="262" width="270" height="14" rx="7" fill="#EEF2FA"/>
  <rect x="96" y="300" width="142" height="42" rx="21" fill="#0B0F19"/>
  <rect x="62" y="424" width="522" height="314" rx="18" fill="#F8FAFF" stroke="#DCE2EF"/>
  <rect x="616" y="424" width="522" height="314" rx="18" fill="#F8FAFF" stroke="#DCE2EF"/>
  <rect x="96" y="458" width="280" height="20" rx="8" fill="#EAF0FF"/>
  <rect x="650" y="458" width="280" height="20" rx="8" fill="#EAF0FF"/>
</svg>
